Coordinates
version=1
nRows=17
nColumns=36
inDegrees=yes

Units are S.I. units (second, meters, Newtons, ...)
If the header above contains a line with 'inDegrees', this indicates whether rotational values are in degrees (yes) or radians (no).

endheader
time	pelvis_tilt	pelvis_list	pelvis_rotation	pelvis_tx	pelvis_ty	pelvis_tz	hip_flexion_r	hip_adduction_r	hip_rotation_r	knee_angle_r	knee_angle_r_beta	ankle_angle_r	subtalar_angle_r	mtp_angle_r	hip_flexion_l	hip_adduction_l	hip_rotation_l	knee_angle_l	knee_angle_l_beta	ankle_angle_l	subtalar_angle_l	mtp_angle_l	lumbar_extension	lumbar_bending	lumbar_rotation	arm_flex_r	arm_add_r	arm_rot_r	elbow_flex_r	pro_sup_r	arm_flex_l	arm_add_l	arm_rot_l	elbow_flex_l	pro_sup_l
      3.29000000	    -36.88371905	     -5.91667439	      2.08108927	     -0.32681414	      0.84252517	     -0.63619945	     69.75997783	     -7.30732551	     -9.15581519	     41.30696111	      0.72094248	     12.53896355	     -0.61717146	     -7.49999987	     68.23854914	    -23.55080226	     -7.26112112	     30.02916536	      0.52410781	      9.56170810	     10.94906218	     -7.49999987	     -9.66718028	      2.14795492	     -4.86125818	     80.02987438	    -21.21135852	     20.83731595	    123.87441357	    109.11037005	     91.79645238	    -20.62354995	     28.59992118	    116.88341153	    108.88115597
      3.30000000	    -37.53023430	     -5.96797080	      2.16456895	     -0.33040785	      0.83665299	     -0.63366237	     71.49432149	     -7.53941393	     -9.35495607	     42.85704117	      0.74799648	     12.99860754	     -0.64340614	     -7.49999987	     70.09197761	    -23.90503978	     -7.16267367	     31.53034619	      0.55030836	     10.47743723	     10.75772899	     -7.49999987	    -10.35908328	      2.07682761	     -4.80335490	     82.02828402	    -21.21082196	     21.07790075	    123.81297633	    109.06605854	     94.01497567	    -20.34239512	     29.15756381	    116.24474550	    108.86992002
      3.31000000	    -38.15503377	     -6.03902948	      2.26216925	     -0.33369458	      0.83073386	     -0.63122752	     73.17520084	     -7.80580482	     -9.62326551	     44.40516160	      0.77501627	     13.53915682	     -0.56663628	     -7.49999987	     71.90746533	    -24.26363461	     -7.04436429	     32.94748181	      0.57504204	     11.14967345	     10.46120562	     -7.49999987	    -10.99368801	      2.19014817	     -4.82765321	     84.08054889	    -20.96722569	     21.50639729	    123.54689781	    109.06401333	     95.90040735	    -20.22748742	     29.43658028	    115.78119852	    108.85863300
      3.32000000	    -38.85697556	     -6.44613361	      2.25106870	     -0.33698910	      0.82424788	     -0.62824271	     74.86587801	     -7.77356018	    -10.05256215	     45.88290747	      0.80080781	     14.17647649	     -0.46102540	     -7.49999987	     74.07912729	    -24.90831707	     -6.48189737	     34.39064102	      0.60022992	     11.38273595	     10.18174578	     -7.49999987	    -11.44943061	      2.63524186	     -4.70861191	     86.08598913	    -20.66974925	     21.99078340	    123.18200077	    109.09002788	     97.59246962	    -20.12974786	     29.60322934	    115.40827820	    108.81810740
      3.33000000	    -39.62554171	     -7.12811209	      2.15042453	     -0.34017916	      0.81730461	     -0.62477119	     76.56397275	     -7.51669032	    -10.68131600	     47.29889272	      0.82552141	     14.68408171	     -0.59530989	     -7.49999987	     76.52976980	    -25.76727265	     -5.71580684	     35.79062267	      0.62466421	     11.23614943	      9.95402044	     -7.49999987	    -11.71019084	      3.27915190	     -4.44453246	     87.82325081	    -20.42033041	     22.48547490	    122.82667010	    109.05936613	     99.12279286	    -19.99050367	     29.83411394	    115.00256797	    108.75205755
      3.34000000	    -40.16296498	     -7.41904800	      2.11796129	     -0.34284258	      0.81094952	     -0.62174330	     78.09700209	     -7.53866045	    -11.02896461	     48.80322046	      0.85177688	     14.97010420	     -0.78161541	     -7.49999987	     78.30155089	    -26.35994303	     -5.48509748	     36.88805505	      0.64381802	     11.08933486	      9.84773860	     -7.49999987	    -12.24449019	      3.49677492	     -4.22995749	     89.26098537	    -20.08907193	     22.58273421	    122.63033618	    109.02929044	    100.57192834	    -19.78736260	     29.94340136	    114.63357998	    108.71997968
      3.35000000	    -40.49190260	     -7.62180222	      2.23188521	     -0.34492568	      0.80523889	     -0.61954555	     79.33056402	     -7.82561800	    -11.50490922	     50.26718686	      0.87732792	     15.36135619	     -0.89681788	     -7.49999987	     79.67862019	    -26.69923471	     -5.31013039	     37.85369140	      0.66067155	     11.11956378	      9.77751993	     -7.49999987	    -12.96854131	      3.69312432	     -4.19061190	     90.56834912	    -19.78115404	     22.78442628	    122.42790891	    109.01697548	    101.84965324	    -19.56434821	     30.14787938	    114.34218453	    108.70982710
      3.36000000	    -40.68954113	     -7.91837655	      2.41579487	     -0.34673523	      0.79963442	     -0.61742509	     80.35539292	     -8.16958480	    -12.11783326	     51.72831729	      0.90282945	     16.35094828	     -0.44214645	     -7.49999987	     80.99551300	    -26.97272147	     -4.87088669	     38.89146806	      0.67878417	     11.69465218	     10.05612429	     -7.49999987	    -13.80679298	      4.06396414	     -4.19080087	     91.99107250	    -19.40626979	     23.30274599	    122.09565465	    109.03105978	    103.19405333	    -19.52688888	     30.56550567	    114.14860639	    108.72726203
      3.37000000	    -41.10225035	     -8.04594032	      2.50568631	     -0.34868861	      0.79359453	     -0.61485744	     81.72960171	     -8.42376500	    -12.37273510	     53.25733241	      0.92951580	     16.67474763	     -0.51543644	     -7.49999987	     82.45542114	    -27.27573274	     -4.72931243	     39.95998385	      0.69743329	     11.96170055	     10.20326833	     -7.49999987	    -14.36042286	      4.12326279	     -4.07216016	     93.08331628	    -19.09073833	     23.36965602	    122.04514712	    109.02508386	    104.23706526	    -19.25585974	     30.53864217	    114.01261807	    108.70318624
      3.38000000	    -41.47341485	     -8.32892885	      2.63618223	     -0.35054492	      0.78756292	     -0.61253603	     82.96588505	     -8.70753383	    -12.82145950	     54.70049145	      0.95470368	     17.54685058	     -0.18185411	     -7.49999987	     84.06470800	    -27.55700052	     -4.25000238	     41.25746327	      0.72007858	     13.11213551	     11.01982357	     -7.49999987	    -14.89902998	      4.41010130	     -3.93964246	     94.29425510	    -18.87470719	     23.86536923	    121.86619039	    108.96630651	    105.31690094	    -19.20326884	     30.93042450	    113.94727960	    108.65954617
      3.39000000	    -41.80809163	     -8.34244439	      2.82185462	     -0.35223080	      0.78187384	     -0.61042738	     84.22900418	     -9.08436853	    -12.91964503	     56.16274857	      0.98022488	     17.84666442	     -0.30134302	     -7.49999987	     85.37341157	    -27.66368613	     -4.06314573	     42.42561076	      0.74046659	     13.51533352	     11.00365636	     -7.49999987	    -15.51215031	      4.39695435	     -3.87142327	     95.27271090	    -18.62598479	     23.89602444	    121.90432007	    108.95269699	    106.26609716	    -18.98546400	     30.90691367	    113.96858713	    108.64800409
      3.40000000	    -42.07631336	     -8.56506012	      2.97549019	     -0.35362812	      0.77615856	     -0.60840296	     85.31918852	     -9.32070980	    -13.12652103	     57.56015556	      1.00461423	     18.68259170	     -0.19904979	     -7.49999987	     86.79760734	    -27.81631407	     -3.43134388	     43.71156123	      0.76291066	     14.79084408	     11.00032089	     -7.49999987	    -16.10524631	      4.64913480	     -3.81879504	     96.22697489	    -18.35216872	     24.35948121	    121.77880650	    108.90152356	    107.28146562	    -18.94365446	     31.31905897	    113.98888625	    108.66877044
      3.41000000	    -42.37873808	     -8.63173969	      3.06134316	     -0.35489919	      0.77037519	     -0.60623614	     86.50411228	     -9.50495415	    -13.14272507	     58.96487839	      1.02913127	     19.21609164	     -0.32117006	     -7.49999987	     88.18277411	    -28.01277494	     -2.96501236	     45.01861999	      0.78572314	     15.39145635	     10.80983718	     -7.49999987	    -16.64596257	      4.65088578	     -3.74685510	     97.02010431	    -18.12174929	     24.60193090	    121.80839961	    108.87362223	    108.14166993	    -18.81732289	     31.48252907	    114.07175065	    108.69300595
      3.42000000	    -42.63907336	     -8.63829529	      3.15883787	     -0.35603546	      0.76464460	     -0.60420745	     87.68129742	     -9.67943248	    -12.99594884	     60.39118418	      1.05402500	     19.64878298	     -0.50604435	     -7.49999987	     89.46388265	    -28.18465429	     -2.54311605	     46.25871005	      0.80736680	     15.68977138	     10.63277565	     -7.49999987	    -17.23041465	      4.59628125	     -3.64199799	     97.81962315	    -17.97514987	     24.70785090	    121.92640086	    108.87153507	    108.97986204	    -18.73115465	     31.64065432	    114.25334440	    108.72045056
      3.43000000	    -42.83929004	     -8.62566525	      3.24047783	     -0.35695039	      0.75896765	     -0.60225911	     88.80566926	     -9.81715682	    -12.79890359	     61.85425021	      1.07956032	     20.13227749	     -0.71450878	     -7.49999987	     90.65099632	    -28.34298453	     -2.07893524	     47.45921671	      0.82831959	     15.85003925	     10.46666709	     -7.49999987	    -17.85606589	      4.52722612	     -3.51416143	     98.56987220	    -17.86706613	     24.85188602	    122.04858521	    108.88038148	    109.82395839	    -18.73968369	     31.94073331	    114.45749066	    108.75160707
      3.44000000	    -42.96896080	     -8.57589684	      3.33238328	     -0.35767348	      0.75334295	     -0.60033117	     89.86632856	     -9.91911047	    -12.53290866	     63.30563869	      1.10489183	     20.59046621	     -0.95383784	     -7.49999987	     91.69591879	    -28.46029407	     -1.62789450	     48.55065162	      0.84736872	     15.82381369	     10.37141360	     -7.49999987	    -18.52297064	      4.43181857	     -3.38150220	     99.29000623	    -17.74815667	     24.99003533	    122.15636782	    108.88988961	    110.64989544	    -18.78499517	     32.21535793	    114.67504343	    108.77947725
      3.45000000	    -42.94662624	     -8.55389791	      3.44832957	     -0.35818208	      0.74793074	     -0.59839683	     90.71679413	     -9.97112519	    -12.30666696	     64.70843721	      1.12937528	     21.38368522	     -1.23822887	     -7.49999987	     92.55458189	    -28.56547237	     -1.17201391	     49.51229258	      0.86415253	     15.71062513	     10.43841448	     -7.49999987	    -19.37325337	      4.37822183	     -3.37359861	    100.15982575	    -17.55546321	     25.39207451	    122.14408174	    108.88951260	    111.69110895	    -19.03520261	     32.89121338	    114.90429692	    108.79660781
